<?xml version="1.0" encoding="UTF-8" standalone="no"?><!DOCTYPE svg PUBLIC "-//W3C//DTD SVG 1.1//EN" "http://www.w3.org/Graphics/SVG/1.1/DTD/svg11.dtd"><!-- Generated by graphviz version 2.40.1 (20161225.0304)
 --><!-- Title: ERD Pages: 1 --><svg xmlns="http://www.w3.org/2000/svg" xmlns:xlink="http://www.w3.org/1999/xlink" width="878pt" height="562pt" viewBox="0.00 0.00 878.10 562.40">
<g id="graph0" class="graph" transform="scale(1 1) rotate(0) translate(4 558.4)">
<title>ERD</title>
<polygon fill="#ffffff" stroke="transparent" points="-4,4 -4,-558.4 874.1042,-558.4 874.1042,4 -4,4"/>
<!-- Users -->
<g id="node1" class="node">
<title>Users</title>
<polygon fill="none" stroke="#000000" points="11.2679,-135.1 11.2679,-227.1 194.8627,-227.1 194.8627,-135.1 11.2679,-135.1"/>
<text text-anchor="middle" x="35.2034" y="-176.9" font-family="Times,serif" font-size="14.00" fill="#000000">Users</text>
<polyline fill="none" stroke="#000000" points="59.1389,-135.1 59.1389,-227.1 "/>
<text text-anchor="start" x="67.1389" y="-210.5" font-family="Times,serif" font-size="14.00" fill="#000000">UserID : int (PK)</text>
<text text-anchor="start" x="67.1389" y="-193.7" font-family="Times,serif" font-size="14.00" fill="#000000">Username : varchar</text>
<text text-anchor="start" x="67.1389" y="-176.9" font-family="Times,serif" font-size="14.00" fill="#000000">Password : varchar</text>
<text text-anchor="start" x="67.1389" y="-160.1" font-family="Times,serif" font-size="14.00" fill="#000000">Role : varchar</text>
<text text-anchor="start" x="67.1389" y="-143.3" font-family="Times,serif" font-size="14.00" fill="#000000">ContactInfo : varchar</text>
</g>
<!-- Drivers -->
<g id="node3" class="node">
<title>Drivers</title>
<polygon fill="none" stroke="#000000" points="298.1264,-360.5 298.1264,-435.7 538.886,-435.7 538.886,-360.5 298.1264,-360.5"/>
<text text-anchor="middle" x="327.1152" y="-393.9" font-family="Times,serif" font-size="14.00" fill="#000000">Drivers</text>
<polyline fill="none" stroke="#000000" points="356.104,-360.5 356.104,-435.7 "/>
<text text-anchor="start" x="364.104" y="-419.1" font-family="Times,serif" font-size="14.00" fill="#000000">DriverID : int (PK)</text>
<text text-anchor="start" x="364.104" y="-402.3" font-family="Times,serif" font-size="14.00" fill="#000000">UserID : int (FK)</text>
<text text-anchor="start" x="364.104" y="-385.5" font-family="Times,serif" font-size="14.00" fill="#000000">LicenseNumber : varchar</text>
<text text-anchor="start" x="364.104" y="-368.7" font-family="Times,serif" font-size="14.00" fill="#000000">AssignedVehicleID : int (FK)</text>
</g>
<!-- Users&#45;&gt;Drivers -->
<g id="edge1" class="edge">
<title>Users-&gt;Drivers</title>
<path fill="none" stroke="#000000" d="M157.1577,-227.2212C195.3312,-258.7639 248.3412,-300.5869 298.1264,-333.1 309.9214,-340.8029 322.7129,-348.4257 335.4058,-355.5919"/>
<polygon fill="#000000" stroke="#000000" points="333.7256,-358.6623 344.1641,-360.4756 337.1347,-352.5485 333.7256,-358.6623"/>
<text text-anchor="middle" x="252.1285" y="-322.3" font-family="Times,serif" font-size="14.00" fill="#000000">1 to 1</text>
</g>
<!-- Logs -->
<g id="node10" class="node">
<title>Logs</title>
<polygon fill="none" stroke="#000000" points="327.4648,-.5 327.4648,-75.7 509.5476,-75.7 509.5476,-.5 327.4648,-.5"/>
<text text-anchor="middle" x="349.4634" y="-33.9" font-family="Times,serif" font-size="14.00" fill="#000000">Logs</text>
<polyline fill="none" stroke="#000000" points="371.462,-.5 371.462,-75.7 "/>
<text text-anchor="start" x="379.462" y="-59.1" font-family="Times,serif" font-size="14.00" fill="#000000">LogID : int (PK)</text>
<text text-anchor="start" x="379.462" y="-42.3" font-family="Times,serif" font-size="14.00" fill="#000000">UserID : int (FK)</text>
<text text-anchor="start" x="379.462" y="-25.5" font-family="Times,serif" font-size="14.00" fill="#000000">Action : varchar</text>
<text text-anchor="start" x="379.462" y="-8.7" font-family="Times,serif" font-size="14.00" fill="#000000">Timestamp : datetime</text>
</g>
<!-- Users&#45;&gt;Logs -->
<g id="edge2" class="edge">
<title>Users-&gt;Logs</title>
<path fill="none" stroke="#000000" d="M192.6277,-135.0334C225.5162,-118.6463 263.2377,-100.4628 298.1264,-85.1 304.62,-82.2406 311.3464,-79.3704 318.1488,-76.5358"/>
<polygon fill="#000000" stroke="#000000" points="319.5473,-79.7451 327.4574,-72.6967 316.8783,-73.2738 319.5473,-79.7451"/>
<text text-anchor="middle" x="252.1285" y="-122.3" font-family="Times,serif" font-size="14.00" fill="#000000">1 to many</text>
</g>
<!-- Vehicles -->
<g id="node2" class="node">
<title>Vehicles</title>
<polygon fill="none" stroke="#000000" points="0,-397.7 0,-506.5 206.1306,-506.5 206.1306,-397.7 0,-397.7"/>
<text text-anchor="middle" x="32.4881" y="-447.9" font-family="Times,serif" font-size="14.00" fill="#000000">Vehicles</text>
<polyline fill="none" stroke="#000000" points="64.9762,-397.7 64.9762,-506.5 "/>
<text text-anchor="start" x="72.9762" y="-489.9" font-family="Times,serif" font-size="14.00" fill="#000000">VehicleID : int (PK)</text>
<text text-anchor="start" x="72.9762" y="-473.1" font-family="Times,serif" font-size="14.00" fill="#000000">VehicleType : varchar</text>
<text text-anchor="start" x="72.9762" y="-456.3" font-family="Times,serif" font-size="14.00" fill="#000000">LicensePlate : varchar</text>
<text text-anchor="start" x="72.9762" y="-439.5" font-family="Times,serif" font-size="14.00" fill="#000000">FuelType : varchar</text>
<text text-anchor="start" x="72.9762" y="-422.7" font-family="Times,serif" font-size="14.00" fill="#000000">Capacity : int</text>
<text text-anchor="start" x="72.9762" y="-405.9" font-family="Times,serif" font-size="14.00" fill="#000000">Status : varchar</text>
</g>
<!-- Vehicles&#45;&gt;Drivers -->
<g id="edge3" class="edge">
<title>Vehicles-&gt;Drivers</title>
<path fill="none" stroke="#000000" d="M206.3524,-434.4184C232.4368,-429.953 260.7853,-425.1001 288.0169,-420.4383"/>
<polygon fill="#000000" stroke="#000000" points="288.7268,-423.8678 297.9928,-418.7306 287.5456,-416.9682 288.7268,-423.8678"/>
<text text-anchor="middle" x="252.1285" y="-433.3" font-family="Times,serif" font-size="14.00" fill="#000000">1 to 1</text>
</g>
<!-- FuelRecords -->
<g id="node7" class="node">
<title>FuelRecords</title>
<polygon fill="none" stroke="#000000" points="630.8818,-428.3 630.8818,-553.9 870.1042,-553.9 870.1042,-428.3 630.8818,-428.3"/>
<text text-anchor="middle" x="674.2612" y="-486.9" font-family="Times,serif" font-size="14.00" fill="#000000">FuelRecords</text>
<polyline fill="none" stroke="#000000" points="717.6406,-428.3 717.6406,-553.9 "/>
<text text-anchor="start" x="725.6406" y="-537.3" font-family="Times,serif" font-size="14.00" fill="#000000">FuelRecordID : int (PK)</text>
<text text-anchor="start" x="725.6406" y="-520.5" font-family="Times,serif" font-size="14.00" fill="#000000">VehicleID : int (FK)</text>
<text text-anchor="start" x="725.6406" y="-503.7" font-family="Times,serif" font-size="14.00" fill="#000000">DriverID : int (FK)</text>
<text text-anchor="start" x="725.6406" y="-486.9" font-family="Times,serif" font-size="14.00" fill="#000000">Date : datetime</text>
<text text-anchor="start" x="725.6406" y="-470.1" font-family="Times,serif" font-size="14.00" fill="#000000">FuelAmount : float</text>
<text text-anchor="start" x="725.6406" y="-453.3" font-family="Times,serif" font-size="14.00" fill="#000000">FuelCost : float</text>
<text text-anchor="start" x="725.6406" y="-436.5" font-family="Times,serif" font-size="14.00" fill="#000000">OdometerReading : int</text>
</g>
<!-- Vehicles&#45;&gt;FuelRecords -->
<g id="edge9" class="edge">
<title>Vehicles-&gt;FuelRecords</title>
<path fill="none" stroke="#000000" d="M206.368,-458.3228C318.7879,-465.0948 498.7482,-475.9353 620.6448,-483.2782"/>
<polygon fill="#000000" stroke="#000000" points="620.5924,-486.7813 630.7848,-483.889 621.0134,-479.7939 620.5924,-486.7813"/>
<text text-anchor="middle" x="418.5062" y="-481.3" font-family="Times,serif" font-size="14.00" fill="#000000">1 to many</text>
</g>
<!-- Drivers&#45;&gt;FuelRecords -->
<g id="edge4" class="edge">
<title>Drivers-&gt;FuelRecords</title>
<path fill="none" stroke="#000000" d="M538.9175,-429.9162C563.4247,-436.538 589.0075,-443.5563 612.8818,-450.3 615.544,-451.052 618.2341,-451.8155 620.9447,-452.5881"/>
<polygon fill="#000000" stroke="#000000" points="620.258,-456.0321 630.8351,-455.4209 622.1854,-449.3026 620.258,-456.0321"/>
<text text-anchor="middle" x="584.8839" y="-454.3" font-family="Times,serif" font-size="14.00" fill="#000000">1 to many</text>
</g>
<!-- Invoices -->
<g id="node9" class="node">
<title>Invoices</title>
<polygon fill="none" stroke="#000000" points="654.2156,-317.1 654.2156,-409.1 846.7704,-409.1 846.7704,-317.1 654.2156,-317.1"/>
<text text-anchor="middle" x="685.9281" y="-358.9" font-family="Times,serif" font-size="14.00" fill="#000000">Invoices</text>
<polyline fill="none" stroke="#000000" points="717.6406,-317.1 717.6406,-409.1 "/>
<text text-anchor="start" x="725.6406" y="-392.5" font-family="Times,serif" font-size="14.00" fill="#000000">InvoiceID : int (PK)</text>
<text text-anchor="start" x="725.6406" y="-375.7" font-family="Times,serif" font-size="14.00" fill="#000000">DriverID : int (FK)</text>
<text text-anchor="start" x="725.6406" y="-358.9" font-family="Times,serif" font-size="14.00" fill="#000000">Date : datetime</text>
<text text-anchor="start" x="725.6406" y="-342.1" font-family="Times,serif" font-size="14.00" fill="#000000">Amount : float</text>
<text text-anchor="start" x="725.6406" y="-325.3" font-family="Times,serif" font-size="14.00" fill="#000000">Status : varchar</text>
</g>
<!-- Drivers&#45;&gt;Invoices -->
<g id="edge7" class="edge">
<title>Drivers-&gt;Invoices</title>
<path fill="none" stroke="#000000" d="M539.3002,-385.3652C573.4914,-381.7605 610.4522,-377.8639 643.7513,-374.3533"/>
<polygon fill="#000000" stroke="#000000" points="644.3829,-377.8062 653.9608,-373.277 643.649,-370.8448 644.3829,-377.8062"/>
<text text-anchor="middle" x="584.8839" y="-386.3" font-family="Times,serif" font-size="14.00" fill="#000000">1 to many</text>
</g>
<!-- Routes -->
<g id="node4" class="node">
<title>Routes</title>
<polygon fill="none" stroke="#000000" points="318.5342,-180.9 318.5342,-323.3 518.4782,-323.3 518.4782,-180.9 318.5342,-180.9"/>
<text text-anchor="middle" x="345.9774" y="-247.9" font-family="Times,serif" font-size="14.00" fill="#000000">Routes</text>
<polyline fill="none" stroke="#000000" points="373.4206,-180.9 373.4206,-323.3 "/>
<text text-anchor="start" x="381.4206" y="-306.7" font-family="Times,serif" font-size="14.00" fill="#000000">RouteID : int (PK)</text>
<text text-anchor="start" x="381.4206" y="-289.9" font-family="Times,serif" font-size="14.00" fill="#000000">OperatorID : int (FK)</text>
<text text-anchor="start" x="381.4206" y="-273.1" font-family="Times,serif" font-size="14.00" fill="#000000">RouteName : varchar</text>
<text text-anchor="start" x="381.4206" y="-256.3" font-family="Times,serif" font-size="14.00" fill="#000000">StartLocation : varchar</text>
<text text-anchor="start" x="381.4206" y="-239.5" font-family="Times,serif" font-size="14.00" fill="#000000">EndLocation : varchar</text>
<text text-anchor="start" x="381.4206" y="-222.7" font-family="Times,serif" font-size="14.00" fill="#000000">TotalDistance : float</text>
<text text-anchor="start" x="381.4206" y="-205.9" font-family="Times,serif" font-size="14.00" fill="#000000">TotalTime : float</text>
<text text-anchor="start" x="381.4206" y="-189.1" font-family="Times,serif" font-size="14.00" fill="#000000">Status : varchar</text>
</g>
<!-- Bookings -->
<g id="node6" class="node">
<title>Bookings</title>
<polygon fill="none" stroke="#000000" points="633.8036,-44.9 633.8036,-187.3 867.1824,-187.3 867.1824,-44.9 633.8036,-44.9"/>
<text text-anchor="middle" x="668.6395" y="-111.9" font-family="Times,serif" font-size="14.00" fill="#000000">Bookings</text>
<polyline fill="none" stroke="#000000" points="703.4754,-44.9 703.4754,-187.3 "/>
<text text-anchor="start" x="711.4754" y="-170.7" font-family="Times,serif" font-size="14.00" fill="#000000">BookingID : int (PK)</text>
<text text-anchor="start" x="711.4754" y="-153.9" font-family="Times,serif" font-size="14.00" fill="#000000">PassengerID : int (FK)</text>
<text text-anchor="start" x="711.4754" y="-137.1" font-family="Times,serif" font-size="14.00" fill="#000000">RouteID : int (FK)</text>
<text text-anchor="start" x="711.4754" y="-120.3" font-family="Times,serif" font-size="14.00" fill="#000000">PickupLocation : varchar</text>
<text text-anchor="start" x="711.4754" y="-103.5" font-family="Times,serif" font-size="14.00" fill="#000000">DropoffLocation : varchar</text>
<text text-anchor="start" x="711.4754" y="-86.7" font-family="Times,serif" font-size="14.00" fill="#000000">PickupTime : datetime</text>
<text text-anchor="start" x="711.4754" y="-69.9" font-family="Times,serif" font-size="14.00" fill="#000000">DropoffTime : datetime</text>
<text text-anchor="start" x="711.4754" y="-53.1" font-family="Times,serif" font-size="14.00" fill="#000000">Status : varchar</text>
</g>
<!-- Routes&#45;&gt;Bookings -->
<g id="edge5" class="edge">
<title>Routes-&gt;Bookings</title>
<path fill="none" stroke="#000000" d="M518.5634,-211.1111C551.8626,-197.4699 589.3889,-182.0971 624.3982,-167.7553"/>
<polygon fill="#000000" stroke="#000000" points="625.7918,-170.9668 633.7186,-163.9372 623.1382,-164.4893 625.7918,-170.9668"/>
<text text-anchor="middle" x="584.8839" y="-197.3" font-family="Times,serif" font-size="14.00" fill="#000000">1 to many</text>
</g>
<!-- Expenses -->
<g id="node8" class="node">
<title>Expenses</title>
<polygon fill="none" stroke="#000000" points="648.7696,-206.1 648.7696,-298.1 852.2164,-298.1 852.2164,-206.1 648.7696,-206.1"/>
<text text-anchor="middle" x="683.2051" y="-247.9" font-family="Times,serif" font-size="14.00" fill="#000000">Expenses</text>
<polyline fill="none" stroke="#000000" points="717.6406,-206.1 717.6406,-298.1 "/>
<text text-anchor="start" x="725.6406" y="-281.5" font-family="Times,serif" font-size="14.00" fill="#000000">ExpenseID : int (PK)</text>
<text text-anchor="start" x="725.6406" y="-264.7" font-family="Times,serif" font-size="14.00" fill="#000000">RouteID : int (FK)</text>
<text text-anchor="start" x="725.6406" y="-247.9" font-family="Times,serif" font-size="14.00" fill="#000000">Description : varchar</text>
<text text-anchor="start" x="725.6406" y="-231.1" font-family="Times,serif" font-size="14.00" fill="#000000">Amount : float</text>
<text text-anchor="start" x="725.6406" y="-214.3" font-family="Times,serif" font-size="14.00" fill="#000000">Date : datetime</text>
</g>
<!-- Routes&#45;&gt;Expenses -->
<g id="edge6" class="edge">
<title>Routes-&gt;Expenses</title>
<path fill="none" stroke="#000000" d="M518.5634,-252.1C556.3317,-252.1 599.5379,-252.1 638.3418,-252.1"/>
<polygon fill="#000000" stroke="#000000" points="638.6321,-255.6001 648.6321,-252.1 638.632,-248.6001 638.6321,-255.6001"/>
<text text-anchor="middle" x="584.8839" y="-256.3" font-family="Times,serif" font-size="14.00" fill="#000000">1 to many</text>
</g>
<!-- Routes&#45;&gt;Invoices -->
<g id="edge10" class="edge">
<title>Routes-&gt;Invoices</title>
<path fill="none" stroke="#000000" d="M518.5634,-285.5542C558.3322,-298.8509 604.1304,-314.1636 644.4695,-327.651"/>
<polygon fill="#000000" stroke="#000000" points="643.4664,-331.006 654.0602,-330.8576 645.6861,-324.3672 643.4664,-331.006"/>
<text text-anchor="middle" x="584.8839" y="-318.3" font-family="Times,serif" font-size="14.00" fill="#000000">1 to many</text>
</g>
<!-- Passengers -->
<g id="node5" class="node">
<title>Passengers</title>
<polygon fill="none" stroke="#000000" points="308.233,-94.9 308.233,-153.3 528.7794,-153.3 528.7794,-94.9 308.233,-94.9"/>
<text text-anchor="middle" x="346.9434" y="-119.9" font-family="Times,serif" font-size="14.00" fill="#000000">Passengers</text>
<polyline fill="none" stroke="#000000" points="385.6538,-94.9 385.6538,-153.3 "/>
<text text-anchor="start" x="393.6538" y="-136.7" font-family="Times,serif" font-size="14.00" fill="#000000">PassengerID : int (PK)</text>
<text text-anchor="start" x="393.6538" y="-119.9" font-family="Times,serif" font-size="14.00" fill="#000000">Name : varchar</text>
<text text-anchor="start" x="393.6538" y="-103.1" font-family="Times,serif" font-size="14.00" fill="#000000">ContactInfo : varchar</text>
</g>
<!-- Passengers&#45;&gt;Bookings -->
<g id="edge8" class="edge">
<title>Passengers-&gt;Bookings</title>
<path fill="none" stroke="#000000" d="M529.053,-121.4361C559.3491,-120.7061 592.4293,-119.9089 623.5653,-119.1586"/>
<polygon fill="#000000" stroke="#000000" points="623.6873,-122.6568 633.6001,-118.9168 623.5186,-115.6588 623.6873,-122.6568"/>
<text text-anchor="middle" x="584.8839" y="-125.3" font-family="Times,serif" font-size="14.00" fill="#000000">1 to many</text>
</g>
</g>
</svg>