<?xml version="1.0" encoding="UTF-8" standalone="no"?><!DOCTYPE svg PUBLIC "-//W3C//DTD SVG 1.1//EN" "http://www.w3.org/Graphics/SVG/1.1/DTD/svg11.dtd"><!-- Generated by graphviz version 2.40.1 (20161225.0304)
 --><!-- Title: TransLogix Pages: 1 --><svg xmlns="http://www.w3.org/2000/svg" xmlns:xlink="http://www.w3.org/1999/xlink" width="1638pt" height="348pt" viewBox="0.00 0.00 1637.79 348.00">
<g id="graph0" class="graph" transform="scale(1 1) rotate(0) translate(4 344)">
<title>TransLogix</title>
<polygon fill="#ffffff" stroke="transparent" points="-4,4 -4,-344 1633.7906,-344 1633.7906,4 -4,4"/>
<g id="clust1" class="cluster">
<title>cluster_mobile_apps</title>
<polygon fill="#d3d3d3" stroke="#d3d3d3" points="75.9685,-201 75.9685,-332 793.7243,-332 793.7243,-201 75.9685,-201"/>
<text text-anchor="middle" x="434.8464" y="-315.4" font-family="Times,serif" font-size="14.00" fill="#000000">Мобільні додатки</text>
</g>
<g id="clust2" class="cluster">
<title>cluster_web_apps</title>
<polygon fill="#add8e6" stroke="#add8e6" points="8,-8 8,-193 861.6928,-193 861.6928,-8 8,-8"/>
<text text-anchor="middle" x="434.8464" y="-176.4" font-family="Times,serif" font-size="14.00" fill="#000000">Веб-додатки</text>
</g>
<!-- worker_app -->
<g id="node1" class="node">
<title>worker_app</title>
<ellipse fill="#ffffff" stroke="#ffffff" cx="434.8464" cy="-281" rx="350.7559" ry="18"/>
<text text-anchor="middle" x="434.8464" y="-276.8" font-family="Times,serif" font-size="14.00" fill="#000000">Мобільний додаток для працівника</text>
</g>
<!-- backend -->
<g id="node6" class="node">
<title>backend</title>
<polygon fill="#000000" stroke="#000000" points="1116.2748,-160 889.4985,-160 889.4985,-124 1116.2748,-124 1116.2748,-160"/>
<text text-anchor="middle" x="1002.8867" y="-137.8" font-family="Times,serif" font-size="14.00" fill="#000000">Бекенд на Python</text>
</g>
<!-- worker_app&#45;&gt;backend -->
<g id="edge1" class="edge">
<title>worker_app-&gt;backend</title>
<path fill="none" stroke="#000000" d="M779.5328,-277.5126C807.7974,-271.7315 835.5276,-264.0549 861.6928,-254 909.5406,-235.6128 953.9723,-194.8909 979.7645,-167.951"/>
<polygon fill="#000000" stroke="#000000" points="982.5505,-170.0971 986.8431,-160.4107 977.447,-165.306 982.5505,-170.0971"/>
</g>
<!-- driver_app -->
<g id="node2" class="node">
<title>driver_app</title>
<ellipse fill="#ffffff" stroke="#ffffff" cx="434.8464" cy="-227" rx="285.953" ry="18"/>
<text text-anchor="middle" x="434.8464" y="-222.8" font-family="Times,serif" font-size="14.00" fill="#000000">Мобільний додаток для водія</text>
</g>
<!-- driver_app&#45;&gt;backend -->
<g id="edge2" class="edge">
<title>driver_app-&gt;backend</title>
<path fill="none" stroke="#000000" d="M702.4804,-220.5904C755.6558,-215.8461 810.7725,-208.4301 861.6928,-197 894.4122,-189.6555 929.5547,-175.9886 956.5948,-164.1165"/>
<polygon fill="#000000" stroke="#000000" points="958.0994,-167.2778 965.804,-160.0054 955.2458,-160.8858 958.0994,-167.2778"/>
</g>
<!-- logistic_operator_app -->
<g id="node3" class="node">
<title>logistic_operator_app</title>
<ellipse fill="#ffffff" stroke="#ffffff" cx="434.8464" cy="-142" rx="315.9959" ry="18"/>
<text text-anchor="middle" x="434.8464" y="-137.8" font-family="Times,serif" font-size="14.00" fill="#000000">Веб-додаток для логіст-оператора</text>
</g>
<!-- logistic_operator_app&#45;&gt;backend -->
<g id="edge3" class="edge">
<title>logistic_operator_app-&gt;backend</title>
<path fill="none" stroke="#000000" d="M750.8416,-142C796.3807,-142 840.8091,-142 879.3637,-142"/>
<polygon fill="#000000" stroke="#000000" points="879.5555,-145.5001 889.5555,-142 879.5555,-138.5001 879.5555,-145.5001"/>
</g>
<!-- finance_manager_app -->
<g id="node4" class="node">
<title>finance_manager_app</title>
<ellipse fill="#ffffff" stroke="#ffffff" cx="434.8464" cy="-88" rx="418.6928" ry="18"/>
<text text-anchor="middle" x="434.8464" y="-83.8" font-family="Times,serif" font-size="14.00" fill="#000000">Веб-додаток для фінансового менеджера</text>
</g>
<!-- finance_manager_app&#45;&gt;backend -->
<g id="edge4" class="edge">
<title>finance_manager_app-&gt;backend</title>
<path fill="none" stroke="#000000" d="M721.4591,-101.1534C768.4141,-104.7361 816.4814,-109.2704 861.6928,-115 876.7222,-116.9047 892.5629,-119.4242 907.9851,-122.1599"/>
<polygon fill="#000000" stroke="#000000" points="907.5824,-125.6439 918.0465,-123.9845 908.8316,-118.7562 907.5824,-125.6439"/>
</g>
<!-- system_admin_app -->
<g id="node5" class="node">
<title>system_admin_app</title>
<ellipse fill="#ffffff" stroke="#ffffff" cx="434.8464" cy="-34" rx="375.0637" ry="18"/>
<text text-anchor="middle" x="434.8464" y="-29.8" font-family="Times,serif" font-size="14.00" fill="#000000">Веб-додаток для адміністратора системи</text>
</g>
<!-- system_admin_app&#45;&gt;backend -->
<g id="edge5" class="edge">
<title>system_admin_app-&gt;backend</title>
<path fill="none" stroke="#000000" d="M776.064,-41.483C805.3314,-46.3641 834.2265,-52.7437 861.6928,-61 901.9872,-73.1124 943.1702,-98.5338 970.5789,-117.6865"/>
<polygon fill="#000000" stroke="#000000" points="968.7979,-120.7148 978.9752,-123.6599 972.8558,-115.011 968.7979,-120.7148"/>
</g>
<!-- database -->
<g id="node7" class="node">
<title>database</title>
<path fill="#ffffe0" stroke="#ffffe0" d="M1380.999,-179.7273C1380.999,-181.5331 1329.7026,-183 1266.5534,-183 1203.4041,-183 1152.1078,-181.5331 1152.1078,-179.7273 1152.1078,-179.7273 1152.1078,-150.2727 1152.1078,-150.2727 1152.1078,-148.4669 1203.4041,-147 1266.5534,-147 1329.7026,-147 1380.999,-148.4669 1380.999,-150.2727 1380.999,-150.2727 1380.999,-179.7273 1380.999,-179.7273"/>
<path fill="none" stroke="#ffffe0" d="M1380.999,-179.7273C1380.999,-177.9214 1329.7026,-176.4545 1266.5534,-176.4545 1203.4041,-176.4545 1152.1078,-177.9214 1152.1078,-179.7273"/>
<text text-anchor="middle" x="1266.5534" y="-160.8" font-family="Times,serif" font-size="14.00" fill="#000000">База даних MySQL</text>
</g>
<!-- backend&#45;&gt;database -->
<g id="edge6" class="edge">
<title>backend-&gt;database</title>
<path fill="none" stroke="#000000" d="M1116.2353,-151.8876C1124.7625,-152.6314 1133.3949,-153.3844 1141.9861,-154.1338"/>
<polygon fill="#000000" stroke="#000000" points="1141.7773,-157.6288 1152.0437,-155.0112 1142.3857,-150.6553 1141.7773,-157.6288"/>
</g>
<!-- aws -->
<g id="node8" class="node">
<title>aws</title>
<polygon fill="#ffb6c1" stroke="#ffb6c1" points="1629.6729,-160 1417.1438,-160 1417.1438,-124 1629.6729,-124 1629.6729,-160"/>
<text text-anchor="middle" x="1523.4084" y="-137.8" font-family="Times,serif" font-size="14.00" fill="#000000">AWS для хостингу</text>
</g>
<!-- backend&#45;&gt;aws -->
<g id="edge7" class="edge">
<title>backend-&gt;aws</title>
<path fill="none" stroke="#000000" d="M1116.1104,-138.6458C1128.2516,-138.3812 1140.4216,-138.1563 1152.0806,-138 1253.825,-136.6363 1279.2826,-136.5711 1381.0262,-138 1389.3791,-138.1173 1398.0068,-138.2733 1406.6914,-138.4557"/>
<polygon fill="#000000" stroke="#000000" points="1406.8244,-141.9594 1416.8994,-138.6813 1406.9791,-134.9612 1406.8244,-141.9594"/>
</g>
<!-- database&#45;&gt;aws -->
<g id="edge8" class="edge">
<title>database-&gt;aws</title>
<path fill="none" stroke="#000000" d="M1381.0838,-154.7444C1389.6414,-153.9781 1398.2823,-153.2044 1406.8522,-152.437"/>
<polygon fill="#000000" stroke="#000000" points="1407.2225,-155.9179 1416.8705,-151.5399 1406.5981,-148.9458 1407.2225,-155.9179"/>
</g>
</g>
</svg>