<?xml version="1.0" encoding="UTF-8" standalone="no"?><!DOCTYPE svg PUBLIC "-//W3C//DTD SVG 1.1//EN" "http://www.w3.org/Graphics/SVG/1.1/DTD/svg11.dtd"><!-- Generated by graphviz version 2.40.1 (20161225.0304)
 --><!-- Title: G Pages: 1 --><svg xmlns="http://www.w3.org/2000/svg" xmlns:xlink="http://www.w3.org/1999/xlink" width="468pt" height="849pt" viewBox="0.00 0.00 468.34 849.00">
<g id="graph0" class="graph" transform="scale(1 1) rotate(0) translate(4 845)">
<title>G</title>
<polygon fill="#ffffff" stroke="transparent" points="-4,4 -4,-845 464.3406,-845 464.3406,4 -4,4"/>
<g id="clust1" class="cluster">
<title>cluster_frontend</title>
<polygon fill="none" stroke="#000000" points="8,-8 8,-331 452.3406,-331 452.3406,-8 8,-8"/>
<text text-anchor="middle" x="230.1703" y="-314.4" font-family="Times,serif" font-size="14.00" fill="#000000">Front-end</text>
</g>
<g id="clust2" class="cluster">
<title>cluster_backend</title>
<polygon fill="none" stroke="#000000" points="114.2327,-339 114.2327,-416 346.1079,-416 346.1079,-339 114.2327,-339"/>
<text text-anchor="middle" x="230.1703" y="-399.4" font-family="Times,serif" font-size="14.00" fill="#000000">Back-end</text>
</g>
<g id="clust3" class="cluster">
<title>cluster_database</title>
<polygon fill="none" stroke="#000000" points="141.2271,-424 141.2271,-501 320.1135,-501 320.1135,-424 141.2271,-424"/>
<text text-anchor="middle" x="230.6703" y="-484.4" font-family="Times,serif" font-size="14.00" fill="#000000">База даних</text>
</g>
<g id="clust4" class="cluster">
<title>cluster_aws</title>
<polygon fill="none" stroke="#000000" points="195.1703,-509 195.1703,-748 265.1703,-748 265.1703,-509 195.1703,-509"/>
<text text-anchor="middle" x="230.1703" y="-731.4" font-family="Times,serif" font-size="14.00" fill="#000000">AWS</text>
</g>
<g id="clust5" class="cluster">
<title>cluster_ci_cd</title>
<polygon fill="none" stroke="#000000" points="169.6496,-756 169.6496,-833 290.691,-833 290.691,-756 169.6496,-756"/>
<text text-anchor="middle" x="230.1703" y="-816.4" font-family="Times,serif" font-size="14.00" fill="#000000">CI/CD</text>
</g>
<!-- mobile_app_employee -->
<g id="node1" class="node">
<title>mobile_app_employee</title>
<polygon fill="none" stroke="#000000" points="376.2601,-297.6019 84.0805,-297.6019 84.0805,-256.3981 376.2601,-256.3981 376.2601,-297.6019"/>
<text text-anchor="middle" x="230.1703" y="-281.2" font-family="Times,serif" font-size="14.00" fill="#000000">Мобільний додаток</text>
<text text-anchor="middle" x="230.1703" y="-264.4" font-family="Times,serif" font-size="14.00" fill="#000000">для працівників</text>
</g>
<!-- mobile_app_driver -->
<g id="node2" class="node">
<title>mobile_app_driver</title>
<polygon fill="none" stroke="#000000" points="376.2601,-237.6019 84.0805,-237.6019 84.0805,-196.3981 376.2601,-196.3981 376.2601,-237.6019"/>
<text text-anchor="middle" x="230.1703" y="-221.2" font-family="Times,serif" font-size="14.00" fill="#000000">Мобільний додаток</text>
<text text-anchor="middle" x="230.1703" y="-204.4" font-family="Times,serif" font-size="14.00" fill="#000000">для водіїв</text>
</g>
<!-- web_app_logist -->
<g id="node3" class="node">
<title>web_app_logist</title>
<polygon fill="none" stroke="#000000" points="369.5455,-177.6019 90.7951,-177.6019 90.7951,-136.3981 369.5455,-136.3981 369.5455,-177.6019"/>
<text text-anchor="middle" x="230.1703" y="-161.2" font-family="Times,serif" font-size="14.00" fill="#000000">Веб-додаток</text>
<text text-anchor="middle" x="230.1703" y="-144.4" font-family="Times,serif" font-size="14.00" fill="#000000">для логіст-оператора</text>
</g>
<!-- web_app_finance -->
<g id="node4" class="node">
<title>web_app_finance</title>
<polygon fill="none" stroke="#000000" points="444.511,-117.6019 15.8296,-117.6019 15.8296,-76.3981 444.511,-76.3981 444.511,-117.6019"/>
<text text-anchor="middle" x="230.1703" y="-101.2" font-family="Times,serif" font-size="14.00" fill="#000000">Веб-додаток</text>
<text text-anchor="middle" x="230.1703" y="-84.4" font-family="Times,serif" font-size="14.00" fill="#000000">для фінансового менеджера</text>
</g>
<!-- web_app_admin -->
<g id="node5" class="node">
<title>web_app_admin</title>
<polygon fill="none" stroke="#000000" points="358.6708,-57.6019 101.6698,-57.6019 101.6698,-16.3981 358.6708,-16.3981 358.6708,-57.6019"/>
<text text-anchor="middle" x="230.1703" y="-41.2" font-family="Times,serif" font-size="14.00" fill="#000000">Веб-додаток</text>
<text text-anchor="middle" x="230.1703" y="-24.4" font-family="Times,serif" font-size="14.00" fill="#000000">для адміністратора</text>
</g>
<!-- backend_server -->
<g id="node6" class="node">
<title>backend_server</title>
<polygon fill="none" stroke="#000000" points="338.0455,-383 122.2951,-383 122.2951,-347 338.0455,-347 338.0455,-383"/>
<text text-anchor="middle" x="230.1703" y="-360.8" font-family="Times,serif" font-size="14.00" fill="#000000">Бекенд-сервер</text>
</g>
<!-- database -->
<g id="node7" class="node">
<title>database</title>
<polygon fill="none" stroke="#000000" points="261.0568,-468 199.2838,-468 199.2838,-432 261.0568,-432 261.0568,-468"/>
<text text-anchor="middle" x="230.1703" y="-445.8" font-family="Times,serif" font-size="14.00" fill="#000000">MySQL</text>
</g>
<!-- ec2 -->
<g id="node8" class="node">
<title>ec2</title>
<polygon fill="none" stroke="#000000" points="257.1703,-715 203.1703,-715 203.1703,-679 257.1703,-679 257.1703,-715"/>
<text text-anchor="middle" x="230.1703" y="-692.8" font-family="Times,serif" font-size="14.00" fill="#000000">EC2</text>
</g>
<!-- rds -->
<g id="node9" class="node">
<title>rds</title>
<polygon fill="none" stroke="#000000" points="257.1703,-661 203.1703,-661 203.1703,-625 257.1703,-625 257.1703,-661"/>
<text text-anchor="middle" x="230.1703" y="-638.8" font-family="Times,serif" font-size="14.00" fill="#000000">RDS</text>
</g>
<!-- s3 -->
<g id="node10" class="node">
<title>s3</title>
<polygon fill="none" stroke="#000000" points="257.1703,-607 203.1703,-607 203.1703,-571 257.1703,-571 257.1703,-607"/>
<text text-anchor="middle" x="230.1703" y="-584.8" font-family="Times,serif" font-size="14.00" fill="#000000">S3</text>
</g>
<!-- iam -->
<g id="node11" class="node">
<title>iam</title>
<polygon fill="none" stroke="#000000" points="257.1703,-553 203.1703,-553 203.1703,-517 257.1703,-517 257.1703,-553"/>
<text text-anchor="middle" x="230.1703" y="-530.8" font-family="Times,serif" font-size="14.00" fill="#000000">IAM</text>
</g>
<!-- github_actions -->
<g id="node12" class="node">
<title>github_actions</title>
<polygon fill="none" stroke="#000000" points="282.7117,-800 177.6289,-800 177.6289,-764 282.7117,-764 282.7117,-800"/>
<text text-anchor="middle" x="230.1703" y="-777.8" font-family="Times,serif" font-size="14.00" fill="#000000">GitHub Actions</text>
</g>
</g>
</svg>