<?xml version="1.0" encoding="UTF-8" standalone="no"?><!DOCTYPE svg PUBLIC "-//W3C//DTD SVG 1.1//EN" "http://www.w3.org/Graphics/SVG/1.1/DTD/svg11.dtd"><!-- Generated by graphviz version 2.40.1 (20161225.0304)
 --><!-- Title: G Pages: 1 --><svg xmlns="http://www.w3.org/2000/svg" xmlns:xlink="http://www.w3.org/1999/xlink" width="1840pt" height="719pt" viewBox="0.00 0.00 1840.13 719.00">
<g id="graph0" class="graph" transform="scale(1 1) rotate(0) translate(4 715)">
<title>G</title>
<polygon fill="#ffffff" stroke="transparent" points="-4,4 -4,-715 1836.129,-715 1836.129,4 -4,4"/>
<g id="clust1" class="cluster">
<title>cluster_frontend</title>
<polygon fill="none" stroke="#0000ff" points="8,-256 8,-703 452.3406,-703 452.3406,-256 8,-256"/>
<text text-anchor="middle" x="230.1703" y="-686.4" font-family="Times,serif" font-size="14.00" fill="#000000">Фронтенд</text>
</g>
<g id="clust2" class="cluster">
<title>cluster_backend</title>
<polygon fill="none" stroke="#00ff00" points="541.5482,-370 541.5482,-513 1824.129,-513 1824.129,-370 541.5482,-370"/>
<text text-anchor="middle" x="1182.8386" y="-496.4" font-family="Times,serif" font-size="14.00" fill="#000000">Бекенд</text>
</g>
<g id="clust3" class="cluster">
<title>cluster_database</title>
<polygon fill="none" stroke="#ffa500" points="862.631,-279 862.631,-362 1487.2538,-362 1487.2538,-279 862.631,-279"/>
<text text-anchor="middle" x="1174.9424" y="-345.4" font-family="Times,serif" font-size="14.00" fill="#000000">База даних</text>
</g>
<g id="clust4" class="cluster">
<title>cluster_aws</title>
<polygon fill="none" stroke="#c0c0c0" points="1007.4778,-8 1007.4778,-271 1342.407,-271 1342.407,-8 1007.4778,-8"/>
<text text-anchor="middle" x="1174.9424" y="-254.4" font-family="Times,serif" font-size="14.00" fill="#000000">AWS</text>
</g>
<g id="clust5" class="cluster">
<title>cluster_cicd</title>
<polygon fill="none" stroke="#a020f0" points="137.3698,-165 137.3698,-248 322.9708,-248 322.9708,-165 137.3698,-165"/>
<text text-anchor="middle" x="230.1703" y="-231.4" font-family="Times,serif" font-size="14.00" fill="#000000">CI/CD</text>
</g>
<!-- mobile_app_employee -->
<g id="node1" class="node">
<title>mobile_app_employee</title>
<path fill="#add8e6" stroke="#000000" d="M376.2601,-662.9732C376.2601,-667.0163 310.7803,-670.3006 230.1703,-670.3006 149.5603,-670.3006 84.0805,-667.0163 84.0805,-662.9732 84.0805,-662.9732 84.0805,-597.0268 84.0805,-597.0268 84.0805,-592.9837 149.5603,-589.6994 230.1703,-589.6994 310.7803,-589.6994 376.2601,-592.9837 376.2601,-597.0268 376.2601,-597.0268 376.2601,-662.9732 376.2601,-662.9732"/>
<path fill="none" stroke="#000000" d="M376.2601,-662.9732C376.2601,-658.9301 310.7803,-655.6458 230.1703,-655.6458 149.5603,-655.6458 84.0805,-658.9301 84.0805,-662.9732"/>
<text text-anchor="middle" x="230.1703" y="-642.6" font-family="Times,serif" font-size="14.00" fill="#000000">Мобільний додаток</text>
<text text-anchor="middle" x="230.1703" y="-625.8" font-family="Times,serif" font-size="14.00" fill="#000000">для працівників</text>
<text text-anchor="middle" x="230.1703" y="-609" font-family="Times,serif" font-size="14.00" fill="#000000">(React Native)</text>
</g>
<!-- backend_server -->
<g id="node6" class="node">
<title>backend_server</title>
<polygon fill="#add8e6" stroke="#000000" points="765.361,-436.4014 549.6106,-436.4014 549.6106,-377.5986 765.361,-377.5986 765.361,-436.4014"/>
<text text-anchor="middle" x="657.4858" y="-419.6" font-family="Times,serif" font-size="14.00" fill="#000000">Бекенд-сервер</text>
<text text-anchor="middle" x="657.4858" y="-402.8" font-family="Times,serif" font-size="14.00" fill="#000000">(Python, Flask)</text>
<text text-anchor="middle" x="657.4858" y="-386" font-family="Times,serif" font-size="14.00" fill="#000000">API: REST, WebSocket</text>
</g>
<!-- mobile_app_employee&#45;&gt;backend_server -->
<g id="edge1" class="edge">
<title>mobile_app_employee-&gt;backend_server</title>
<path fill="none" stroke="#000000" d="M376.4698,-608.38C402.5091,-601.5789 428.8076,-592.6669 452.3406,-581 521.5751,-546.6757 587.0149,-484.0288 624.6404,-444.0128"/>
<polygon fill="#000000" stroke="#000000" points="627.5411,-446.0331 631.7875,-436.3264 622.4148,-441.2664 627.5411,-446.0331"/>
<text text-anchor="middle" x="496.9444" y="-578.2" font-family="Times,serif" font-size="14.00" fill="#000000">REST API</text>
</g>
<!-- mobile_app_driver -->
<g id="node2" class="node">
<title>mobile_app_driver</title>
<path fill="#add8e6" stroke="#000000" d="M376.2601,-564.9732C376.2601,-569.0163 310.7803,-572.3006 230.1703,-572.3006 149.5603,-572.3006 84.0805,-569.0163 84.0805,-564.9732 84.0805,-564.9732 84.0805,-499.0268 84.0805,-499.0268 84.0805,-494.9837 149.5603,-491.6994 230.1703,-491.6994 310.7803,-491.6994 376.2601,-494.9837 376.2601,-499.0268 376.2601,-499.0268 376.2601,-564.9732 376.2601,-564.9732"/>
<path fill="none" stroke="#000000" d="M376.2601,-564.9732C376.2601,-560.9301 310.7803,-557.6458 230.1703,-557.6458 149.5603,-557.6458 84.0805,-560.9301 84.0805,-564.9732"/>
<text text-anchor="middle" x="230.1703" y="-544.6" font-family="Times,serif" font-size="14.00" fill="#000000">Мобільний додаток</text>
<text text-anchor="middle" x="230.1703" y="-527.8" font-family="Times,serif" font-size="14.00" fill="#000000">для водіїв</text>
<text text-anchor="middle" x="230.1703" y="-511" font-family="Times,serif" font-size="14.00" fill="#000000">(React Native)</text>
</g>
<!-- mobile_app_driver&#45;&gt;backend_server -->
<g id="edge2" class="edge">
<title>mobile_app_driver-&gt;backend_server</title>
<path fill="none" stroke="#000000" d="M376.4031,-502.7576C401.873,-496.8093 427.9934,-490.1579 452.3406,-483 493.8269,-470.8034 538.9876,-454.4235 576.3491,-439.9934"/>
<polygon fill="#000000" stroke="#000000" points="577.6194,-443.2548 585.6727,-436.3705 575.084,-436.7301 577.6194,-443.2548"/>
<text text-anchor="middle" x="496.9444" y="-483.2" font-family="Times,serif" font-size="14.00" fill="#000000">REST API</text>
</g>
<!-- web_app_logist -->
<g id="node3" class="node">
<title>web_app_logist</title>
<polygon fill="#add8e6" stroke="#000000" points="369.5455,-474.4014 90.7951,-474.4014 90.7951,-415.5986 369.5455,-415.5986 369.5455,-474.4014"/>
<text text-anchor="middle" x="230.1703" y="-457.6" font-family="Times,serif" font-size="14.00" fill="#000000">Веб-додаток</text>
<text text-anchor="middle" x="230.1703" y="-440.8" font-family="Times,serif" font-size="14.00" fill="#000000">для логіст-оператора</text>
<text text-anchor="middle" x="230.1703" y="-424" font-family="Times,serif" font-size="14.00" fill="#000000">(MS Power Apps)</text>
</g>
<!-- web_app_logist&#45;&gt;backend_server -->
<g id="edge3" class="edge">
<title>web_app_logist-&gt;backend_server</title>
<path fill="none" stroke="#000000" d="M369.7937,-432.5837C424.5762,-427.712 486.7686,-422.1814 539.2788,-417.5118"/>
<polygon fill="#000000" stroke="#000000" points="539.6557,-420.9922 549.3063,-416.6201 539.0356,-414.0197 539.6557,-420.9922"/>
<text text-anchor="middle" x="496.9444" y="-428.2" font-family="Times,serif" font-size="14.00" fill="#000000">REST API</text>
</g>
<!-- web_app_finance -->
<g id="node4" class="node">
<title>web_app_finance</title>
<polygon fill="#add8e6" stroke="#000000" points="444.511,-398.4014 15.8296,-398.4014 15.8296,-339.5986 444.511,-339.5986 444.511,-398.4014"/>
<text text-anchor="middle" x="230.1703" y="-381.6" font-family="Times,serif" font-size="14.00" fill="#000000">Веб-додаток</text>
<text text-anchor="middle" x="230.1703" y="-364.8" font-family="Times,serif" font-size="14.00" fill="#000000">для фінансового менеджера</text>
<text text-anchor="middle" x="230.1703" y="-348" font-family="Times,serif" font-size="14.00" fill="#000000">(MS Power Apps)</text>
</g>
<!-- web_app_finance&#45;&gt;backend_server -->
<g id="edge4" class="edge">
<title>web_app_finance-&gt;backend_server</title>
<path fill="none" stroke="#000000" d="M444.454,-388.0557C477.0528,-390.9546 509.6322,-393.8518 539.1566,-396.4773"/>
<polygon fill="#000000" stroke="#000000" points="539.1966,-399.9946 549.4673,-397.3942 539.8167,-393.0221 539.1966,-399.9946"/>
<text text-anchor="middle" x="496.9444" y="-399.2" font-family="Times,serif" font-size="14.00" fill="#000000">REST API</text>
</g>
<!-- web_app_admin -->
<g id="node5" class="node">
<title>web_app_admin</title>
<polygon fill="#add8e6" stroke="#000000" points="358.6708,-322.4014 101.6698,-322.4014 101.6698,-263.5986 358.6708,-263.5986 358.6708,-322.4014"/>
<text text-anchor="middle" x="230.1703" y="-305.6" font-family="Times,serif" font-size="14.00" fill="#000000">Веб-додаток</text>
<text text-anchor="middle" x="230.1703" y="-288.8" font-family="Times,serif" font-size="14.00" fill="#000000">для адміністратора</text>
<text text-anchor="middle" x="230.1703" y="-272" font-family="Times,serif" font-size="14.00" fill="#000000">(MS Power Apps)</text>
</g>
<!-- web_app_admin&#45;&gt;backend_server -->
<g id="edge5" class="edge">
<title>web_app_admin-&gt;backend_server</title>
<path fill="none" stroke="#000000" d="M358.8142,-310.8385C389.689,-316.2627 422.3881,-322.9647 452.3406,-331 494.9512,-342.4311 541.1284,-359.1353 578.8631,-373.9741"/>
<polygon fill="#000000" stroke="#000000" points="577.6814,-377.2706 588.2674,-377.7022 580.261,-370.7633 577.6814,-377.2706"/>
<text text-anchor="middle" x="496.9444" y="-358.2" font-family="Times,serif" font-size="14.00" fill="#000000">REST API</text>
</g>
<!-- auth_service -->
<g id="node7" class="node">
<title>auth_service</title>
<polygon fill="#add8e6" stroke="#000000" points="1802.7272,-419.6019 1529.6556,-419.6019 1529.6556,-378.3981 1802.7272,-378.3981 1802.7272,-419.6019"/>
<text text-anchor="middle" x="1666.1914" y="-403.2" font-family="Times,serif" font-size="14.00" fill="#000000">Сервіс аутентифікації</text>
<text text-anchor="middle" x="1666.1914" y="-386.4" font-family="Times,serif" font-size="14.00" fill="#000000">(OAuth2)</text>
</g>
<!-- backend_server&#45;&gt;auth_service -->
<g id="edge7" class="edge">
<title>backend_server-&gt;auth_service</title>
<path fill="none" stroke="#000000" d="M765.435,-406.1439C947.1129,-404.703 1314.1766,-401.7918 1519.2044,-400.1657"/>
<polygon fill="#000000" stroke="#000000" points="1519.476,-403.6638 1529.4479,-400.0845 1519.4204,-396.664 1519.476,-403.6638"/>
<text text-anchor="middle" x="1174.9424" y="-409.2" font-family="Times,serif" font-size="14.00" fill="#000000">OAuth2</text>
</g>
<!-- notification_service -->
<g id="node8" class="node">
<title>notification_service</title>
<polygon fill="#add8e6" stroke="#000000" points="1816.0666,-479.6019 1516.3162,-479.6019 1516.3162,-438.3981 1816.0666,-438.3981 1816.0666,-479.6019"/>
<text text-anchor="middle" x="1666.1914" y="-463.2" font-family="Times,serif" font-size="14.00" fill="#000000">Сервіс повідомлень</text>
<text text-anchor="middle" x="1666.1914" y="-446.4" font-family="Times,serif" font-size="14.00" fill="#000000">(Push-повідомлення)</text>
</g>
<!-- backend_server&#45;&gt;notification_service -->
<g id="edge8" class="edge">
<title>backend_server-&gt;notification_service</title>
<path fill="none" stroke="#000000" d="M765.4671,-418.0483C796.7831,-420.9685 831.0468,-423.8902 862.631,-426 1085.5678,-440.8918 1343.7779,-450.0605 1506.0516,-454.8423"/>
<polygon fill="#000000" stroke="#000000" points="1506.0187,-458.3427 1516.1169,-455.1369 1506.2236,-451.3457 1506.0187,-458.3427"/>
<text text-anchor="middle" x="1174.9424" y="-458.2" font-family="Times,serif" font-size="14.00" fill="#000000">WebSocket</text>
</g>
<!-- database -->
<g id="node9" class="node">
<title>database</title>
<polygon fill="#add8e6" stroke="#000000" points="1479.0653,-328.6019 870.8195,-328.6019 870.8195,-287.3981 1479.0653,-287.3981 1479.0653,-328.6019"/>
<text text-anchor="middle" x="1174.9424" y="-312.2" font-family="Times,serif" font-size="14.00" fill="#000000">MySQL</text>
<text text-anchor="middle" x="1174.9424" y="-295.4" font-family="Times,serif" font-size="14.00" fill="#000000">Таблиці: користувачі, маршрути, транспорт, витрати</text>
</g>
<!-- backend_server&#45;&gt;database -->
<g id="edge6" class="edge">
<title>backend_server-&gt;database</title>
<path fill="none" stroke="#000000" d="M765.6295,-382.8542C771.6444,-381.5966 777.6065,-380.3705 783.4234,-379.2 870.2808,-361.7219 968.367,-343.8876 1044.6353,-330.44"/>
<polygon fill="#000000" stroke="#000000" points="1045.5313,-333.8362 1054.7732,-328.6556 1044.3179,-326.9421 1045.5313,-333.8362"/>
<text text-anchor="middle" x="818.0272" y="-383.2" font-family="Times,serif" font-size="14.00" fill="#000000">SQL</text>
</g>
<!-- ec2 -->
<g id="node10" class="node">
<title>ec2</title>
<polygon fill="#add8e6" stroke="#000000" points="1299.9429,-237.6019 1049.9419,-237.6019 1049.9419,-196.3981 1299.9429,-196.3981 1299.9429,-237.6019"/>
<text text-anchor="middle" x="1174.9424" y="-221.2" font-family="Times,serif" font-size="14.00" fill="#000000">EC2</text>
<text text-anchor="middle" x="1174.9424" y="-204.4" font-family="Times,serif" font-size="14.00" fill="#000000">Інстанції серверів</text>
</g>
<!-- backend_server&#45;&gt;ec2 -->
<g id="edge9" class="edge">
<title>backend_server-&gt;ec2</title>
<path fill="none" stroke="#000000" d="M693.2709,-377.7546C732.4388,-347.2964 798.2669,-300.5354 862.631,-275 918.6048,-252.7933 983.6491,-238.9784 1039.8424,-230.4366"/>
<polygon fill="#000000" stroke="#000000" points="1040.4842,-233.8798 1049.8646,-228.9544 1039.4601,-226.9551 1040.4842,-233.8798"/>
<text text-anchor="middle" x="818.0272" y="-318.2" font-family="Times,serif" font-size="14.00" fill="#000000">Deployment</text>
</g>
<!-- rds -->
<g id="node11" class="node">
<title>rds</title>
<polygon fill="#add8e6" stroke="#000000" points="1291.1571,-177.6019 1058.7277,-177.6019 1058.7277,-136.3981 1291.1571,-136.3981 1291.1571,-177.6019"/>
<text text-anchor="middle" x="1174.9424" y="-161.2" font-family="Times,serif" font-size="14.00" fill="#000000">RDS</text>
<text text-anchor="middle" x="1174.9424" y="-144.4" font-family="Times,serif" font-size="14.00" fill="#000000">Управління БД</text>
</g>
<!-- s3 -->
<g id="node12" class="node">
<title>s3</title>
<polygon fill="#add8e6" stroke="#000000" points="1317.1571,-117.6019 1032.7277,-117.6019 1032.7277,-76.3981 1317.1571,-76.3981 1317.1571,-117.6019"/>
<text text-anchor="middle" x="1174.9424" y="-101.2" font-family="Times,serif" font-size="14.00" fill="#000000">S3</text>
<text text-anchor="middle" x="1174.9424" y="-84.4" font-family="Times,serif" font-size="14.00" fill="#000000">Зберігання файлів</text>
</g>
<!-- iam -->
<g id="node13" class="node">
<title>iam</title>
<polygon fill="#add8e6" stroke="#000000" points="1334.3716,-57.6019 1015.5132,-57.6019 1015.5132,-16.3981 1334.3716,-16.3981 1334.3716,-57.6019"/>
<text text-anchor="middle" x="1174.9424" y="-41.2" font-family="Times,serif" font-size="14.00" fill="#000000">IAM</text>
<text text-anchor="middle" x="1174.9424" y="-24.4" font-family="Times,serif" font-size="14.00" fill="#000000">Управління доступом</text>
</g>
<!-- github_actions -->
<g id="node14" class="node">
<title>github_actions</title>
<polygon fill="#add8e6" stroke="#000000" points="314.7718,-214.6019 145.5688,-214.6019 145.5688,-173.3981 314.7718,-173.3981 314.7718,-214.6019"/>
<text text-anchor="middle" x="230.1703" y="-198.2" font-family="Times,serif" font-size="14.00" fill="#000000">GitHub Actions</text>
<text text-anchor="middle" x="230.1703" y="-181.4" font-family="Times,serif" font-size="14.00" fill="#000000">Pipeline: build, test, deploy</text>
</g>
<!-- github_actions&#45;&gt;backend_server -->
<g id="edge10" class="edge">
<title>github_actions-&gt;backend_server</title>
<path fill="none" stroke="#000000" d="M314.9412,-207.9976C357.5693,-217.0344 409.2016,-231.0973 452.3406,-252 516.5517,-283.1131 580.5557,-335.8015 619.5777,-370.9926"/>
<polygon fill="#000000" stroke="#000000" points="617.2903,-373.6433 627.0417,-377.7859 622.0021,-368.4664 617.2903,-373.6433"/>
<text text-anchor="middle" x="496.9444" y="-303.2" font-family="Times,serif" font-size="14.00" fill="#000000">Deployment</text>
</g>
</g>
</svg>